<svg xmlns="http://www.w3.org/2000/svg" viewBox="0 0 32 32" fill="none" stroke="currentColor" stroke-width="1.6" stroke-linecap="round" stroke-linejoin="round" aria-hidden="true">
  <!-- Centered hand: 4 fingers + thumb + palm, balanced in 32x32 viewBox.
       Fingers run y=10 to y=16, palm wraps from y=15 down to y=26. -->
  <path d="M9 16 V11 a1.5 1.5 0 0 1 3 0 V15"/>
  <path d="M12 15 V8.5 a1.5 1.5 0 0 1 3 0 V15"/>
  <path d="M15 15 V9 a1.5 1.5 0 0 1 3 0 V15"/>
  <path d="M18 15 V12 a1.5 1.5 0 0 1 3 0 V18 a7 7 0 0 1 -14 0 v-3.5 a1.5 1.5 0 0 1 3 0 V18"/>
</svg>
