<svg xmlns="http://www.w3.org/2000/svg" viewBox="0 0 220 290" fill="none" stroke="#0E2A47" stroke-width="1.8" stroke-linecap="round" stroke-linejoin="round" aria-hidden="true">
  <!-- Lower Peninsula of Michigan, clean editorial line silhouette. -->
  <path d="
    M 62 30
    L 138 30
    Q 150 30 150 44
    L 150 64
    Q 142 78 128 90
    Q 116 102 122 114
    Q 134 122 150 110
    Q 158 92 166 70
    Q 176 50 188 56
    Q 198 70 196 88
    Q 192 102 178 106
    Q 164 110 156 116
    Q 152 122 152 132
    L 158 256
    Q 158 268 144 268
    L 60 268
    Q 40 268 38 256
    L 32 198
    Q 26 138 30 92
    Q 34 60 44 44
    Q 52 30 62 30 Z
  " fill="none" stroke="#0E2A47"/>

  <!-- Burns Park / Ann Arbor location, south-central. Single small mark, no label. -->
  <circle cx="92" cy="220" r="3.2" fill="#0E2A47" stroke="none"/>
</svg>
