<svg xmlns="http://www.w3.org/2000/svg" viewBox="0 0 320 160" fill="none" stroke="#0E2A47" stroke-width="3.5" stroke-linecap="round" stroke-linejoin="round" aria-hidden="true">
  <!-- ground line -->
  <path d="M10 134 L310 134" opacity=".4" stroke-dasharray="2 6"/>
  <!-- body, hand-drawn sedan silhouette -->
  <path d="M30 116 Q40 86 80 78 Q108 58 156 56 Q210 56 246 80 Q286 86 296 110 Q304 122 296 130 L30 132 Q22 124 30 116 Z" fill="#FAF4E8" stroke="#0E2A47"/>
  <!-- roofline / window cut -->
  <path d="M86 78 Q108 60 156 58 Q204 58 244 80"/>
  <path d="M150 60 L150 80" opacity=".7"/>
  <!-- door handle hint -->
  <path d="M110 102 L138 102" opacity=".55"/>
  <!-- wheel wells -->
  <circle cx="86" cy="132" r="22" fill="#0E2A47"/>
  <circle cx="86" cy="132" r="9" fill="#FAF4E8"/>
  <circle cx="240" cy="132" r="22" fill="#0E2A47"/>
  <circle cx="240" cy="132" r="9" fill="#FAF4E8"/>
  <!-- sun reflection on hood -->
  <path d="M200 92 Q220 84 252 90" stroke="#F5B83A" stroke-width="3"/>
</svg>
